<mxfile host="app.diagrams.net" modified="2024-03-21T09:29:12.497Z" agent="Mozilla/5.0 (Windows NT 10.0; Win64; x64) AppleWebKit/537.36 (KHTML, like Gecko) Chrome/120.0.0.0 Safari/537.36" version="24.0.5" etag="1GsShGb3olSzTqnnTFgw" type="github">
  <diagram name="第 1 页" id="36t2IF8AFJYuTmpVC9TV">
    <mxGraphModel>
      <root>
        <mxCell id="0" />
        <mxCell id="1" parent="0" />
      </root>
    </mxGraphModel>
  </diagram>
</mxfile>
